<svg width="31" height="30" viewBox="0 0 31 30" fill="none" xmlns="http://www.w3.org/2000/svg">
<path id="Union" fill-rule="evenodd" clip-rule="evenodd" d="M20.8713 8.06693C20.8713 10.9039 18.5715 13.2037 15.7345 13.2037C12.8976 13.2037 10.5978 10.9039 10.5978 8.06693C10.5978 5.22998 12.8976 2.93017 15.7345 2.93017C18.5715 2.93017 20.8713 5.22998 20.8713 8.06693ZM19.9994 14.9216C22.2854 13.4963 23.8066 10.9593 23.8066 8.06693C23.8066 3.60886 20.1926 -0.00512695 15.7345 -0.00512695C11.2765 -0.00512695 7.66249 3.60886 7.66249 8.06693C7.66249 10.9593 9.18369 13.4963 11.4697 14.9216C9.08405 15.627 6.88814 16.9197 5.09727 18.7105C2.97816 20.8296 1.55656 23.5159 0.980249 26.4125C0.789316 27.3722 0.691162 28.3549 0.691162 29.3478H3.62646H15.7345H27.8426H30.7779C30.7779 28.3549 30.6798 27.3722 30.4888 26.4125C29.9125 23.5159 28.4909 20.8297 26.3718 18.7105C24.581 16.9197 22.385 15.627 19.9994 14.9216ZM24.2963 20.7861C25.8613 22.3512 26.9537 24.3006 27.4815 26.4125H15.7345L3.9876 26.4125C4.51538 24.3006 5.60776 22.3512 7.17283 20.7861C9.44354 18.5154 12.5233 17.2397 15.7345 17.2397C18.9458 17.2397 22.0255 18.5154 24.2963 20.7861Z" fill="#9B734F"/>
</svg>
