<svg width="24" height="33" viewBox="0 0 24 33" fill="none" xmlns="http://www.w3.org/2000/svg">
<path id="Union" fill-rule="evenodd" clip-rule="evenodd" d="M5.0941 3.48302H18.6698C19.4804 3.48302 20.1375 4.14012 20.1375 4.95067V28.0505C20.1375 28.8611 19.4804 29.5181 18.6698 29.5181H5.09411C4.28355 29.5181 3.62646 28.8611 3.62646 28.0505V4.95067C3.62646 4.14011 4.28355 3.48302 5.0941 3.48302ZM0.691162 4.95067C0.691162 2.51899 2.66243 0.547729 5.0941 0.547729H18.6698C21.1015 0.547729 23.0728 2.51899 23.0728 4.95067V28.0505C23.0728 30.4822 21.1015 32.4534 18.6698 32.4534H5.09411C2.66243 32.4534 0.691162 30.4822 0.691162 28.0505V4.95067ZM9.73892 28.7219H14.9772V27.2542H9.73892V28.7219Z" fill="#9B734F"/>
</svg>
