<svg width="29" height="27" viewBox="0 0 23 26" fill="none" xmlns="http://www.w3.org/2000/svg">
<path id="Union" fill-rule="evenodd" clip-rule="evenodd" d="M11.4779 0.662231C10.5947 0.662231 9.7202 0.836188 8.90424 1.17417C8.08828 1.51215 7.34688 2.00754 6.72237 2.63204C6.09787 3.25655 5.60248 3.99795 5.2645 4.81391C5.01718 5.41098 4.8577 6.03942 4.78993 6.67966H4.3986C2.05271 6.67966 0.151001 8.58138 0.151001 10.9273V20.8383C0.151001 23.1842 2.05271 25.0859 4.39859 25.0859H18.5572C20.9031 25.0859 22.8048 23.1842 22.8048 20.8383V10.9273C22.8048 8.58137 20.9031 6.67966 18.5573 6.67966H18.1659C18.0982 6.03942 17.9387 5.41098 17.6913 4.81391C17.3534 3.99795 16.858 3.25655 16.2335 2.63204C15.609 2.00754 14.8676 1.51215 14.0516 1.17417C13.2356 0.836188 12.3611 0.662231 11.4779 0.662231ZM15.3067 6.67966C15.2572 6.41222 15.1797 6.15005 15.0752 5.89756L16.3833 5.35574L15.0752 5.89756C14.8795 5.42517 14.5927 4.99594 14.2311 4.63438C13.8696 4.27282 13.4403 3.98602 12.968 3.79035C12.4956 3.59467 11.9892 3.49396 11.4779 3.49396C10.9666 3.49396 10.4603 3.59467 9.9879 3.79035C9.5155 3.98602 9.08627 4.27282 8.72471 4.63438C8.36315 4.99594 8.07635 5.42517 7.88068 5.89756C7.7761 6.15005 7.69864 6.41222 7.64919 6.67966H15.3067ZM4.3986 9.51139H18.5573C19.3392 9.51139 19.9731 10.1453 19.9731 10.9273V20.8383C19.9731 21.6203 19.3392 22.2542 18.5572 22.2542H12.1859V18.1988C13.003 17.9677 13.6017 17.2164 13.6017 16.3252C13.6017 15.25 12.7301 14.3784 11.6549 14.3784C10.5797 14.3784 9.70809 15.25 9.70809 16.3252C9.70809 17.2164 10.3068 17.9677 11.124 18.1988V22.2542H4.39859C3.61664 22.2542 2.98273 21.6203 2.98273 20.8383V10.9273C2.98273 10.1453 3.61664 9.51139 4.3986 9.51139Z" fill="#9B734F"/>
</svg>
